<svg version="1.1" xmlns="http://www.w3.org/2000/svg" xmlns:xlink="http://www.w3.org/1999/xlink" width="88.16634" height="87.24535" viewBox="0,0,88.16634,87.24535"><defs><linearGradient x1="240" y1="136.37733" x2="240" y2="223.62267" gradientUnits="userSpaceOnUse" id="color-1"><stop offset="0" stop-color="#0800bd"/><stop offset="1" stop-color="#00a4e0"/></linearGradient></defs><g transform="translate(-195.91683,-136.37733)"><g data-paper-data="{&quot;isPaintingLayer&quot;:true}" fill-rule="nonzero" stroke-linejoin="miter" stroke-miterlimit="10" stroke-dasharray="" stroke-dashoffset="0" style="mix-blend-mode: normal"><path d="M284.08317,180c0,24.09214 -19.73671,43.62267 -44.08317,43.62267c-24.34646,0 -44.08317,-19.53054 -44.08317,-43.62267c0,-24.09214 19.73671,-43.62267 44.08317,-43.62267c24.34646,0 44.08317,19.53054 44.08317,43.62267z" fill="url(#color-1)" stroke="none" stroke-width="0" stroke-linecap="butt"/><path d="M216.31989,198.06252c0,0 2.01575,-12.13872 3.98888,-18.02516c2.03058,-6.0578 8.0272,-17.82231 8.0272,-17.82231" fill="none" stroke="#ffffff" stroke-width="14.5" stroke-linecap="round"/><path d="M239.21513,184.24955c0,0 -2.97034,-9.6963 -4.83867,-13.55787c-1.70988,-3.53409 -5.93813,-8.71628 -5.93813,-8.71628" fill="none" stroke="#ffffff" stroke-width="14.5" stroke-linecap="round"/><path d="M263.68012,197.78496c0,0 -5.17162,-10.34671 -7.38805,-16.24482c-2.2725,-6.04732 -6.08294,-19.60265 -6.08294,-19.60265" fill="none" stroke="#ffffff" stroke-width="14.5" stroke-linecap="round"/><path d="M239.32997,184.26298l10.7768,-22.27416" fill="none" stroke="#ffffff" stroke-width="14.5" stroke-linecap="round"/></g></g></svg>